<?xml version="1.0" encoding="utf-8"?>
<!-- Generator: Adobe Illustrator 18.1.1, SVG Export Plug-In . SVG Version: 6.00 Build 0)  -->
<svg version="1.1" id="Layer_1" xmlns="http://www.w3.org/2000/svg" xmlns:xlink="http://www.w3.org/1999/xlink" x="0px" y="0px"
	 viewBox="0 0 612 792" enable-background="new 0 0 612 792" xml:space="preserve">
<g>
	<rect fill="#49A4DC" width="612" height="91.1"/>
	<ellipse fill="none" cx="142.5" cy="47.5" rx="38.6" ry="24.7"/>
	<ellipse fill="#FFFFFF" cx="82.3" cy="44.4" rx="35.4" ry="24.7"/>
	<ellipse fill="#FFFFFF" cx="64.6" cy="27" rx="17.7" ry="13.9"/>
	<ellipse fill="#FFFFFF" cx="111.4" cy="27.8" rx="17.1" ry="17.7"/>
	<ellipse fill="#FFFFFF" cx="69.7" cy="59.5" rx="30.4" ry="11.4"/>
	<ellipse fill="#FFFFFF" cx="554.2" cy="54.9" rx="37.3" ry="29.7"/>
	<ellipse fill="#FFFFFF" cx="516.8" cy="53.2" rx="28.2" ry="14.9"/>
	<ellipse fill="#FFFFFF" cx="566.5" cy="25.6" rx="25" ry="17.7"/>
	<g>
		<g>
			<path fill="#F7ED55" d="M158.3,17.6c15-1.9,30-1.4,44.8,1.8c3.1,0.7,4.5-4.1,1.3-4.8c-15.2-3.3-30.7-4-46.2-2
				C155.2,13,155.1,18,158.3,17.6L158.3,17.6z"/>
		</g>
	</g>
	<g>
		<g>
			<path fill="#F7ED55" d="M178.6,16.5c0.5,12.7,0.4,25.4-0.5,38c-0.2,3.2,4.8,3.2,5,0c0.8-12.7,1-25.3,0.5-38
				C183.5,13.3,178.5,13.3,178.6,16.5L178.6,16.5z"/>
		</g>
	</g>
	<g>
		<g>
			<path fill="#F7ED55" d="M215.3,35.5c-0.4,6.3,0.5,12.5,2.5,18.4c1,3,5.9,1.7,4.8-1.3c-1.9-5.6-2.7-11.2-2.3-17.1
				C220.5,32.3,215.5,32.3,215.3,35.5L215.3,35.5z"/>
		</g>
	</g>
	<g>
		<g>
			<path fill="#F7ED55" d="M217.6,25.3c3.2,0,3.2-5,0-5C214.4,20.3,214.4,25.3,217.6,25.3L217.6,25.3z"/>
		</g>
	</g>
	<g>
		<g>
			<path fill="#F7ED55" d="M238.5,32.9c-5.6-3.8-12.8,1.5-12.6,7.8c0.2,8.9,9.7,12.2,16.9,13.7c3.1,0.7,4.5-4.2,1.3-4.8
				c-4.2-0.9-9.2-1.7-11.9-5.4c-1.1-1.5-1.9-3.9-0.9-5.6c1-1.6,3-2.3,4.7-1.3C238.7,39,241.2,34.7,238.5,32.9L238.5,32.9z"/>
		</g>
	</g>
	<g>
		<g>
			<path fill="#F7ED55" d="M250.7,43.9c2.1,0,4.2,0,6.3,0c3.2,0,3.2-5,0-5c-2.1,0-4.2,0-6.3,0C247.5,38.9,247.5,43.9,250.7,43.9
				L250.7,43.9z"/>
		</g>
	</g>
	<g>
		<g>
			<path fill="#F7ED55" d="M255.5,24.3c12-1.9,24-0.9,35.5,2.8c3.1,1,4.4-3.9,1.3-4.8c-12.5-3.9-25.3-4.8-38.2-2.8
				C251,20,252.3,24.8,255.5,24.3L255.5,24.3z"/>
		</g>
	</g>
	<g>
		<g>
			<path fill="#F7ED55" d="M270.9,26.4c-0.1,7.5-0.6,15.2-0.1,22.7c0.2,2.3,0.7,4.2,2,6.1c1.3,1.9,5.2,4.6,4.2,7
				c-1.2,3,3.6,4.3,4.8,1.3c2.2-5.4-3.6-8-5.4-12.2c-1.4-3.3-0.6-8.3-0.6-11.8c0-4.4,0.1-8.7,0.1-13.1
				C275.9,23.1,270.9,23.1,270.9,26.4L270.9,26.4z"/>
		</g>
	</g>
	<g>
		<g>
			<path fill="#F7ED55" d="M298,43.6c-2.9-2.6-6.2-4.3-10-5.3c-1.1-0.3-2.3,0.2-2.8,1.1c-2.4,4.1-3.1,10.5,1.4,13.5
				c3.4,2.3,8.6,1.6,10.5-2.2c-1.5-0.2-3-0.4-4.6-0.6c0.4,2.4,1.4,4.6,2.9,6.5c1.9,2.5,6.3,0,4.3-2.5c-1.2-1.6-2-3.3-2.4-5.3
				c-0.4-2.1-3.7-2.5-4.6-0.6c-0.7,1.4-2.6,1.5-3.6,0.4c-1.8-1.7-0.7-4.9,0.3-6.6c-0.9,0.4-1.9,0.8-2.8,1.1c2.9,0.7,5.5,2,7.8,4
				C296.9,49.3,300.4,45.8,298,43.6L298,43.6z"/>
		</g>
	</g>
	<g>
		<g>
			<path fill="#F7ED55" d="M319.2,42.1c-2.3-0.4-4.6-0.2-6.6,1.1c-1.7,1.1-4.1,3.5-3.6,5.7c0.5,2.2,3,4.3,4.7,5.6
				c2,1.4,4.3,2.4,6.7,2.8c3.1,0.5,4.5-4.4,1.3-4.8c-3.5-0.5-6.4-2.4-8.1-5.5c0,0.8,0,1.7,0,2.5c0.8-1.7,2.4-3,4.3-2.6
				C321.1,47.5,322.4,42.7,319.2,42.1L319.2,42.1z"/>
		</g>
	</g>
	<g>
		<g>
			<path fill="#F7ED55" d="M330.4,53.7c2.1-1.3,4.2-2.5,6.3-3.8c2.7-1.7,0.2-6-2.5-4.3c-2.1,1.3-4.2,2.5-6.3,3.8
				C325.2,51,327.7,55.4,330.4,53.7L330.4,53.7z"/>
		</g>
	</g>
	<g>
		<g>
			<path fill="#F7ED55" d="M341.8,27.4c8.2,10.2,12.3,22.7,12.1,35.7c-0.1,3.2,4.9,3.2,5,0c0.2-14.4-4.6-28-13.6-39.3
				C343.3,21.3,339.8,24.9,341.8,27.4L341.8,27.4z"/>
		</g>
	</g>
	<g>
		<g>
			<path fill="#F7ED55" d="M343.6,22.9c11.8,1.4,28,3.7,31.6,17.4c1.6,6.1-0.2,11.6-5.9,14.6c-4.4,2.3-9.2,3.5-12.6,7.5
				c-2,2.5,1.5,6,3.5,3.5c4.5-5.4,12.5-5.5,17-11c3.9-4.8,4.2-11.5,2.3-17.2c-5.1-15.2-22.2-18.1-36.1-19.8
				C340.4,17.5,340.4,22.5,343.6,22.9L343.6,22.9z"/>
		</g>
	</g>
	<g>
		<g>
			<path fill="#F7ED55" d="M395.3,36.9c-5,0.8-7.5,6.4-6.4,11c1.4,5.7,7.8,7.9,13.1,6.8c5.1-1.1,11.2-6.1,9.1-11.9
				c-0.9-2.5-3.2-3.8-5.6-4.3c-2.3-0.4-5.7,0.2-7.4-1.7c-2.1-2.5-5.6,1.1-3.5,3.5c1.8,2.1,4.4,2.6,7,2.8c1.1,0.1,2.9-0.1,4,0.5
				c2.2,1.3,0.1,3.8-1.4,4.8c-2.5,1.8-7.5,2.4-9.7-0.3c-1.8-2.2-0.7-6,2.1-6.4C399.8,41.3,398.4,36.5,395.3,36.9L395.3,36.9z"/>
		</g>
	</g>
	<g>
		<g>
			<path fill="#F7ED55" d="M406.9,22.4c4.7,8.7,9.5,17.3,14.2,26c0.7,1.3,2.2,1.4,3.4,0.9c7.8-3.3-4.1-12.6,5.3-15.4
				c2.1-0.6,5.7-0.8,7.9-0.2c2.3,0.6,2.2,1.5,2.2,3.7c0.1,2.7,0.2,4.7,2,6.8c2,2.5,5.6-1.1,3.5-3.5c-1.9-2.3,0.3-6.6-1.8-9.4
				c-2.5-3.3-8.3-3.1-12-2.8c-3.9,0.3-7.5,1.8-9.8,5.1c-1,1.4-1.6,3-1.6,4.8c0,0.9,1.5,6.6,1.7,6.5c1.1,0.3,2.3,0.6,3.4,0.9
				c-4.7-8.7-9.5-17.3-14.2-26C409.6,17.1,405.3,19.6,406.9,22.4L406.9,22.4z"/>
		</g>
	</g>
</g>
</svg>
